<svg width="129" height="60" viewBox="0 0 129 60" fill="none" xmlns="http://www.w3.org/2000/svg">
<path d="M5.52 9.152V19.232C5.52 20.24 5.768 21.016 6.264 21.56C6.76 22.104 7.488 22.376 8.448 22.376C9.408 22.376 10.144 22.104 10.656 21.56C11.168 21.016 11.424 20.24 11.424 19.232V9.152H15.528V19.208C15.528 20.712 15.208 21.984 14.568 23.024C13.928 24.064 13.064 24.848 11.976 25.376C10.904 25.904 9.704 26.168 8.376 26.168C7.048 26.168 5.856 25.912 4.8 25.4C3.76 24.872 2.936 24.088 2.328 23.048C1.72 21.992 1.416 20.712 1.416 19.208V9.152H5.52ZM22.5139 14.504C22.9139 13.88 23.4659 13.376 24.1699 12.992C24.8739 12.608 25.6979 12.416 26.6419 12.416C27.7459 12.416 28.7459 12.696 29.6419 13.256C30.5379 13.816 31.2419 14.616 31.7539 15.656C32.2819 16.696 32.5459 17.904 32.5459 19.28C32.5459 20.656 32.2819 21.872 31.7539 22.928C31.2419 23.968 30.5379 24.776 29.6419 25.352C28.7459 25.912 27.7459 26.192 26.6419 26.192C25.7139 26.192 24.8899 26 24.1699 25.616C23.4659 25.232 22.9139 24.736 22.5139 24.128V32.384H18.4099V12.608H22.5139V14.504ZM28.3699 19.28C28.3699 18.256 28.0819 17.456 27.5059 16.88C26.9459 16.288 26.2499 15.992 25.4179 15.992C24.6019 15.992 23.9059 16.288 23.3299 16.88C22.7699 17.472 22.4899 18.28 22.4899 19.304C22.4899 20.328 22.7699 21.136 23.3299 21.728C23.9059 22.32 24.6019 22.616 25.4179 22.616C26.2339 22.616 26.9299 22.32 27.5059 21.728C28.0819 21.12 28.3699 20.304 28.3699 19.28ZM44.4669 26L38.8029 18.56V26H34.6989V9.152H38.8029V16.544L44.4189 9.152H49.2429L42.7149 17.408L49.4829 26H44.4669ZM64.0573 19.088C64.0573 19.472 64.0333 19.872 63.9853 20.288H54.6973C54.7613 21.12 55.0253 21.76 55.4893 22.208C55.9693 22.64 56.5533 22.856 57.2413 22.856C58.2653 22.856 58.9773 22.424 59.3773 21.56H63.7453C63.5213 22.44 63.1133 23.232 62.5213 23.936C61.9453 24.64 61.2173 25.192 60.3373 25.592C59.4573 25.992 58.4733 26.192 57.3853 26.192C56.0733 26.192 54.9053 25.912 53.8813 25.352C52.8573 24.792 52.0573 23.992 51.4813 22.952C50.9053 21.912 50.6173 20.696 50.6173 19.304C50.6173 17.912 50.8973 16.696 51.4573 15.656C52.0333 14.616 52.8333 13.816 53.8573 13.256C54.8813 12.696 56.0573 12.416 57.3853 12.416C58.6813 12.416 59.8333 12.688 60.8413 13.232C61.8493 13.776 62.6333 14.552 63.1933 15.56C63.7693 16.568 64.0573 17.744 64.0573 19.088ZM59.8573 18.008C59.8573 17.304 59.6173 16.744 59.1373 16.328C58.6573 15.912 58.0573 15.704 57.3373 15.704C56.6493 15.704 56.0653 15.904 55.5853 16.304C55.1213 16.704 54.8333 17.272 54.7213 18.008H59.8573ZM78.8464 19.088C78.8464 19.472 78.8224 19.872 78.7744 20.288H69.4864C69.5504 21.12 69.8144 21.76 70.2784 22.208C70.7584 22.64 71.3424 22.856 72.0304 22.856C73.0544 22.856 73.7664 22.424 74.1664 21.56H78.5344C78.3104 22.44 77.9024 23.232 77.3104 23.936C76.7344 24.64 76.0064 25.192 75.1264 25.592C74.2464 25.992 73.2624 26.192 72.1744 26.192C70.8624 26.192 69.6944 25.912 68.6704 25.352C67.6464 24.792 66.8464 23.992 66.2704 22.952C65.6944 21.912 65.4064 20.696 65.4064 19.304C65.4064 17.912 65.6864 16.696 66.2464 15.656C66.8224 14.616 67.6224 13.816 68.6464 13.256C69.6704 12.696 70.8464 12.416 72.1744 12.416C73.4704 12.416 74.6224 12.688 75.6304 13.232C76.6384 13.776 77.4224 14.552 77.9824 15.56C78.5584 16.568 78.8464 17.744 78.8464 19.088ZM74.6464 18.008C74.6464 17.304 74.4064 16.744 73.9264 16.328C73.4464 15.912 72.8464 15.704 72.1264 15.704C71.4384 15.704 70.8544 15.904 70.3744 16.304C69.9104 16.704 69.6224 17.272 69.5104 18.008H74.6464ZM85.1154 14.504C85.5154 13.88 86.0674 13.376 86.7714 12.992C87.4754 12.608 88.2994 12.416 89.2434 12.416C90.3474 12.416 91.3474 12.696 92.2434 13.256C93.1394 13.816 93.8434 14.616 94.3554 15.656C94.8834 16.696 95.1474 17.904 95.1474 19.28C95.1474 20.656 94.8834 21.872 94.3554 22.928C93.8434 23.968 93.1394 24.776 92.2434 25.352C91.3474 25.912 90.3474 26.192 89.2434 26.192C88.3154 26.192 87.4914 26 86.7714 25.616C86.0674 25.232 85.5154 24.736 85.1154 24.128V32.384H81.0114V12.608H85.1154V14.504ZM90.9714 19.28C90.9714 18.256 90.6834 17.456 90.1074 16.88C89.5474 16.288 88.8514 15.992 88.0194 15.992C87.2034 15.992 86.5074 16.288 85.9314 16.88C85.3714 17.472 85.0914 18.28 85.0914 19.304C85.0914 20.328 85.3714 21.136 85.9314 21.728C86.5074 22.32 87.2034 22.616 88.0194 22.616C88.8354 22.616 89.5314 22.32 90.1074 21.728C90.6834 21.12 90.9714 20.304 90.9714 19.28Z" fill="#03C9D7"/>
<path d="M34.592 33.152V50H30.488V33.152H34.592ZM45.7261 36.464C47.2941 36.464 48.5421 36.976 49.4701 38C50.4141 39.008 50.8861 40.4 50.8861 42.176V50H46.8061V42.728C46.8061 41.832 46.5741 41.136 46.1101 40.64C45.6461 40.144 45.0221 39.896 44.2381 39.896C43.4541 39.896 42.8301 40.144 42.3661 40.64C41.9021 41.136 41.6701 41.832 41.6701 42.728V50H37.5661V36.608H41.6701V38.384C42.0861 37.792 42.6461 37.328 43.3501 36.992C44.0541 36.64 44.8461 36.464 45.7261 36.464ZM59.186 50.192C58.018 50.192 56.978 49.992 56.066 49.592C55.154 49.192 54.434 48.648 53.906 47.96C53.378 47.256 53.082 46.472 53.018 45.608H57.074C57.122 46.072 57.338 46.448 57.722 46.736C58.106 47.024 58.578 47.168 59.138 47.168C59.65 47.168 60.042 47.072 60.314 46.88C60.602 46.672 60.746 46.408 60.746 46.088C60.746 45.704 60.546 45.424 60.146 45.248C59.746 45.056 59.098 44.848 58.202 44.624C57.242 44.4 56.442 44.168 55.802 43.928C55.162 43.672 54.61 43.28 54.146 42.752C53.682 42.208 53.45 41.48 53.45 40.568C53.45 39.8 53.658 39.104 54.074 38.48C54.506 37.84 55.13 37.336 55.946 36.968C56.778 36.6 57.762 36.416 58.898 36.416C60.578 36.416 61.898 36.832 62.858 37.664C63.834 38.496 64.394 39.6 64.538 40.976H60.746C60.682 40.512 60.474 40.144 60.122 39.872C59.786 39.6 59.338 39.464 58.778 39.464C58.298 39.464 57.93 39.56 57.674 39.752C57.418 39.928 57.29 40.176 57.29 40.496C57.29 40.88 57.49 41.168 57.89 41.36C58.306 41.552 58.946 41.744 59.81 41.936C60.802 42.192 61.61 42.448 62.234 42.704C62.858 42.944 63.402 43.344 63.866 43.904C64.346 44.448 64.594 45.184 64.61 46.112C64.61 46.896 64.386 47.6 63.938 48.224C63.506 48.832 62.874 49.312 62.042 49.664C61.226 50.016 60.274 50.192 59.186 50.192ZM69.1848 35.216C68.4648 35.216 67.8728 35.008 67.4088 34.592C66.9608 34.16 66.7368 33.632 66.7368 33.008C66.7368 32.368 66.9608 31.84 67.4088 31.424C67.8728 30.992 68.4648 30.776 69.1848 30.776C69.8888 30.776 70.4648 30.992 70.9128 31.424C71.3768 31.84 71.6088 32.368 71.6088 33.008C71.6088 33.632 71.3768 34.16 70.9128 34.592C70.4648 35.008 69.8888 35.216 69.1848 35.216ZM71.2248 36.608V50H67.1208V36.608H71.2248ZM79.2869 36.416C80.2309 36.416 81.0549 36.608 81.7589 36.992C82.4789 37.376 83.0309 37.88 83.4149 38.504V36.608H87.5189V49.976C87.5189 51.208 87.2709 52.32 86.7749 53.312C86.2949 54.32 85.5509 55.12 84.5429 55.712C83.5509 56.304 82.3109 56.6 80.8229 56.6C78.8389 56.6 77.2309 56.128 75.9989 55.184C74.7669 54.256 74.0629 52.992 73.8869 51.392H77.9429C78.0709 51.904 78.3749 52.304 78.8549 52.592C79.3349 52.896 79.9269 53.048 80.6309 53.048C81.4789 53.048 82.1509 52.8 82.6469 52.304C83.1589 51.824 83.4149 51.048 83.4149 49.976V48.08C83.0149 48.704 82.4629 49.216 81.7589 49.616C81.0549 50 80.2309 50.192 79.2869 50.192C78.1829 50.192 77.1829 49.912 76.2869 49.352C75.3909 48.776 74.6789 47.968 74.1509 46.928C73.6389 45.872 73.3829 44.656 73.3829 43.28C73.3829 41.904 73.6389 40.696 74.1509 39.656C74.6789 38.616 75.3909 37.816 76.2869 37.256C77.1829 36.696 78.1829 36.416 79.2869 36.416ZM83.4149 43.304C83.4149 42.28 83.1269 41.472 82.5509 40.88C81.9909 40.288 81.3029 39.992 80.4869 39.992C79.6709 39.992 78.9749 40.288 78.3989 40.88C77.8389 41.456 77.5589 42.256 77.5589 43.28C77.5589 44.304 77.8389 45.12 78.3989 45.728C78.9749 46.32 79.6709 46.616 80.4869 46.616C81.3029 46.616 81.9909 46.32 82.5509 45.728C83.1269 45.136 83.4149 44.328 83.4149 43.304ZM98.72 36.464C100.256 36.464 101.488 36.976 102.416 38C103.344 39.008 103.808 40.4 103.808 42.176V50H99.728V42.728C99.728 41.832 99.496 41.136 99.032 40.64C98.568 40.144 97.944 39.896 97.16 39.896C96.376 39.896 95.752 40.144 95.288 40.64C94.824 41.136 94.592 41.832 94.592 42.728V50H90.488V32.24H94.592V38.408C95.008 37.816 95.576 37.344 96.296 36.992C97.016 36.64 97.824 36.464 98.72 36.464ZM114.124 46.52V50H112.036C110.548 50 109.388 49.64 108.556 48.92C107.724 48.184 107.308 46.992 107.308 45.344V40.016H105.676V36.608H107.308V33.344H111.412V36.608H114.1V40.016H111.412V45.392C111.412 45.792 111.508 46.08 111.7 46.256C111.892 46.432 112.212 46.52 112.66 46.52H114.124ZM121.858 50.192C120.69 50.192 119.65 49.992 118.738 49.592C117.826 49.192 117.106 48.648 116.578 47.96C116.05 47.256 115.754 46.472 115.69 45.608H119.746C119.794 46.072 120.01 46.448 120.394 46.736C120.778 47.024 121.25 47.168 121.81 47.168C122.322 47.168 122.714 47.072 122.986 46.88C123.274 46.672 123.418 46.408 123.418 46.088C123.418 45.704 123.218 45.424 122.818 45.248C122.418 45.056 121.77 44.848 120.874 44.624C119.914 44.4 119.114 44.168 118.474 43.928C117.834 43.672 117.282 43.28 116.818 42.752C116.354 42.208 116.122 41.48 116.122 40.568C116.122 39.8 116.33 39.104 116.746 38.48C117.178 37.84 117.802 37.336 118.618 36.968C119.45 36.6 120.434 36.416 121.57 36.416C123.25 36.416 124.57 36.832 125.53 37.664C126.506 38.496 127.066 39.6 127.21 40.976H123.418C123.354 40.512 123.146 40.144 122.794 39.872C122.458 39.6 122.01 39.464 121.45 39.464C120.97 39.464 120.602 39.56 120.346 39.752C120.09 39.928 119.962 40.176 119.962 40.496C119.962 40.88 120.162 41.168 120.562 41.36C120.978 41.552 121.618 41.744 122.482 41.936C123.474 42.192 124.282 42.448 124.906 42.704C125.53 42.944 126.074 43.344 126.538 43.904C127.018 44.448 127.266 45.184 127.282 46.112C127.282 46.896 127.058 47.6 126.61 48.224C126.178 48.832 125.546 49.312 124.714 49.664C123.898 50.016 122.946 50.192 121.858 50.192Z" fill="black"/>
</svg>
