<svg width="105" height="36" viewBox="0 0 105 36" fill="none" xmlns="http://www.w3.org/2000/svg">
<path d="M82.456 9.152V12.44H75.592V15.992H80.728V19.184H75.592V26H71.488V9.152H82.456ZM86.677 11.216C85.957 11.216 85.365 11.008 84.901 10.592C84.453 10.16 84.229 9.632 84.229 9.008C84.229 8.368 84.453 7.84 84.901 7.424C85.365 6.992 85.957 6.776 86.677 6.776C87.381 6.776 87.957 6.992 88.405 7.424C88.869 7.84 89.101 8.368 89.101 9.008C89.101 9.632 88.869 10.16 88.405 10.592C87.957 11.008 87.381 11.216 86.677 11.216ZM88.717 12.608V26H84.613V12.608H88.717ZM99.6111 26L97.0431 22.28L94.8831 26H90.4431L94.8591 19.16L90.3231 12.608H94.9311L97.4991 16.304L99.6591 12.608H104.099L99.6111 19.352L104.219 26H99.6111Z" fill="#03C9D7"/>
<path d="M5.592 9.152V26H1.488V9.152H5.592ZM16.7261 12.464C18.2941 12.464 19.5421 12.976 20.4701 14C21.4141 15.008 21.8861 16.4 21.8861 18.176V26H17.8061V18.728C17.8061 17.832 17.5741 17.136 17.1101 16.64C16.6461 16.144 16.0221 15.896 15.2381 15.896C14.4541 15.896 13.8301 16.144 13.3661 16.64C12.9021 17.136 12.6701 17.832 12.6701 18.728V26H8.56613V12.608H12.6701V14.384C13.0861 13.792 13.6461 13.328 14.3501 12.992C15.0541 12.64 15.8461 12.464 16.7261 12.464ZM32.202 22.52V26H30.114C28.626 26 27.466 25.64 26.634 24.92C25.802 24.184 25.386 22.992 25.386 21.344V16.016H23.754V12.608H25.386V9.344H29.49V12.608H32.178V16.016H29.49V21.392C29.49 21.792 29.586 22.08 29.778 22.256C29.97 22.432 30.29 22.52 30.738 22.52H32.202ZM47.112 19.088C47.112 19.472 47.088 19.872 47.04 20.288H37.752C37.816 21.12 38.08 21.76 38.544 22.208C39.024 22.64 39.608 22.856 40.296 22.856C41.32 22.856 42.032 22.424 42.432 21.56H46.8C46.576 22.44 46.168 23.232 45.576 23.936C45 24.64 44.272 25.192 43.392 25.592C42.512 25.992 41.528 26.192 40.44 26.192C39.128 26.192 37.96 25.912 36.936 25.352C35.912 24.792 35.112 23.992 34.536 22.952C33.96 21.912 33.672 20.696 33.672 19.304C33.672 17.912 33.952 16.696 34.512 15.656C35.088 14.616 35.888 13.816 36.912 13.256C37.936 12.696 39.112 12.416 40.44 12.416C41.736 12.416 42.888 12.688 43.896 13.232C44.904 13.776 45.688 14.552 46.248 15.56C46.824 16.568 47.112 17.744 47.112 19.088ZM42.912 18.008C42.912 17.304 42.672 16.744 42.192 16.328C41.712 15.912 41.112 15.704 40.392 15.704C39.704 15.704 39.12 15.904 38.64 16.304C38.176 16.704 37.888 17.272 37.776 18.008H42.912ZM53.3811 8.24V26H49.2771V8.24H53.3811ZM60.4592 8.24V26H56.3552V8.24H60.4592ZM65.4973 11.216C64.7773 11.216 64.1853 11.008 63.7213 10.592C63.2733 10.16 63.0493 9.632 63.0493 9.008C63.0493 8.368 63.2733 7.84 63.7213 7.424C64.1853 6.992 64.7773 6.776 65.4973 6.776C66.2013 6.776 66.7773 6.992 67.2253 7.424C67.6893 7.84 67.9213 8.368 67.9213 9.008C67.9213 9.632 67.6893 10.16 67.2253 10.592C66.7773 11.008 66.2013 11.216 65.4973 11.216ZM67.5373 12.608V26H63.4333V12.608H67.5373Z" fill="white"/>
</svg>
